<svg version="1.1" xmlns="http://www.w3.org/2000/svg" xmlns:xlink="http://www.w3.org/1999/xlink" width="38.07301" height="38.07302" viewBox="0,0,38.07301,38.07302"><g transform="translate(-220.96352,-160.96351)"><g data-paper-data="{&quot;isPaintingLayer&quot;:true}" fill-rule="nonzero" stroke="#000000" stroke-width="2.5" stroke-linejoin="miter" stroke-miterlimit="10" stroke-dasharray="" stroke-dashoffset="0" style="mix-blend-mode: normal"><path d="M222.21352,180.00003c0,-9.82322 7.96329,-17.78651 17.78651,-17.78651c9.82322,0 17.7865,7.96329 17.7865,17.78651c0,9.82322 -7.96329,17.78651 -17.7865,17.78651c-9.82322,0 -17.78651,-7.96329 -17.78651,-17.78651z" fill="#ff9400" stroke-linecap="butt"/><path d="M232.57204,174.97242c0,-1.30518 -4.16595,-2.612 -2.86077,-2.612c1.30518,0 6.34344,2.05311 6.34344,3.35829c0,1.30518 -1.05806,2.36324 -2.36324,2.36324c-1.30518,0 -1.11943,-1.80435 -1.11943,-3.10953z" fill="#000000" stroke-linecap="butt"/><path d="M244.03987,175.74344c0,-1.30518 4.54072,-3.3583 5.84591,-3.3583c1.30518,0 -2.36324,1.55558 -2.36324,2.86077c0,1.30518 0.18576,2.86076 -1.11943,2.86076c-1.30518,0 -2.36324,-1.05805 -2.36324,-2.36324z" fill="#000000" stroke-linecap="butt"/><path d="M232.0745,189.27795c0,0 0.26448,-2.94092 2.95226,-4.63218c1.26085,-0.79337 2.47289,-1.11773 5.50566,-1.08936c4.05028,0.03789 4.08528,0.66213 5.3329,1.65364c1.57443,1.25125 2.6275,4.06789 2.6275,4.06789" fill="none" stroke-linecap="round"/></g></g></svg>