<svg version="1.1" xmlns="http://www.w3.org/2000/svg" xmlns:xlink="http://www.w3.org/1999/xlink" width="46.79151" height="43.59773" viewBox="0,0,46.79151,43.59773"><g transform="translate(-220.96351,-155.4388)"><g data-paper-data="{&quot;isPaintingLayer&quot;:true}" fill-rule="nonzero" stroke="#000000" stroke-linejoin="miter" stroke-miterlimit="10" stroke-dasharray="" stroke-dashoffset="0" style="mix-blend-mode: normal"><path d="M222.21352,180.00002c0,-9.82322 7.96329,-17.78651 17.78651,-17.78651c9.82322,0 17.7865,7.96329 17.7865,17.78651c0,9.82322 -7.96329,17.78651 -17.7865,17.78651c-9.82322,0 -17.78651,-7.96329 -17.78651,-17.78651z" fill="#ffe500" stroke-width="2.5" stroke-linecap="butt"/><path d="M231.32823,175.7187c0,-1.30518 1.05806,-2.36324 2.36324,-2.36324c1.30518,0 2.36324,1.05806 2.36324,2.36324c0,1.30518 -1.05806,2.36324 -2.36324,2.36324c-1.30518,0 -2.36324,-1.05806 -2.36324,-2.36324z" fill="#000000" stroke-width="2.5" stroke-linecap="butt"/><path d="M244.03986,175.74344c0,-1.30518 1.05805,-2.36325 2.36324,-2.36325c1.30518,0 2.36324,1.05806 2.36324,2.36325c0,1.30518 -1.05805,2.36324 -2.36324,2.36324c-1.30518,0 -2.36324,-1.05805 -2.36324,-2.36324z" fill="#000000" stroke-width="2.5" stroke-linecap="butt"/><path d="M232.3,187h15.4" fill="none" stroke-width="2.5" stroke-linecap="round"/><path d="M260.06737,159.14845c0,0 0.57003,-2.49093 3.6587,-1.85607c1.65369,0.41537 2.45418,1.24204 2.27896,2.88499c-0.20478,1.92009 -2.25423,2.12554 -3.20748,4.05549c-0.87282,1.7671 -0.78961,1.95541 -0.78961,1.95541" fill="none" stroke-width="3.5" stroke-linecap="round"/><path d="M260.29218,170.81861c0.0715,-0.38271 0.4397,-0.63499 0.82241,-0.56349c0.38271,0.0715 0.63499,0.4397 0.56349,0.82241c-0.0715,0.38271 -0.4397,0.63499 -0.82241,0.56349c-0.38271,-0.0715 -0.63499,-0.4397 -0.56349,-0.82241z" fill="#000000" stroke-width="2.5" stroke-linecap="butt"/></g></g></svg>