<svg version="1.1" xmlns="http://www.w3.org/2000/svg" xmlns:xlink="http://www.w3.org/1999/xlink" width="38.07301" height="38.07302" viewBox="0,0,38.07301,38.07302"><g transform="translate(-220.96351,-160.9635)"><g data-paper-data="{&quot;isPaintingLayer&quot;:true}" fill-rule="nonzero" stroke-linejoin="miter" stroke-miterlimit="10" stroke-dasharray="" stroke-dashoffset="0" style="mix-blend-mode: normal"><path d="M222.21352,180.00002c0,-9.82322 7.96329,-17.78651 17.78651,-17.78651c9.82322,0 17.7865,7.96329 17.7865,17.78651c0,9.82322 -7.96329,17.78651 -17.7865,17.78651c-9.82322,0 -17.78651,-7.96329 -17.78651,-17.78651z" fill="#ffe500" stroke="#000000" stroke-width="2.5" stroke-linecap="butt"/><path d="M231.32823,175.7187c0,-1.30518 1.05806,-2.36324 2.36324,-2.36324c1.30518,0 2.36324,1.05806 2.36324,2.36324c0,1.30518 -1.05806,2.36324 -2.36324,2.36324c-1.30518,0 -2.36324,-1.05806 -2.36324,-2.36324z" fill="#000000" stroke="#000000" stroke-width="2.5" stroke-linecap="butt"/><path d="M244.03986,175.74344c0,-1.30518 1.05805,-2.36325 2.36324,-2.36325c1.30518,0 2.36324,1.05806 2.36324,2.36325c0,1.30518 -1.05805,2.36324 -2.36324,2.36324c-1.30518,0 -2.36324,-1.05805 -2.36324,-2.36324z" fill="#000000" stroke="#000000" stroke-width="2.5" stroke-linecap="butt"/><path d="M232.0745,189.27795c0,0 0.26448,-2.94092 2.95226,-4.63218c1.26085,-0.79337 2.47289,-1.11773 5.50566,-1.08936c4.05028,0.03789 4.08528,0.66213 5.3329,1.65364c1.57443,1.25125 2.6275,4.06789 2.6275,4.06789" fill="none" stroke="#000000" stroke-width="2.5" stroke-linecap="round"/><path d="M248.24405,182.55964c0,-1.92343 1.55924,-3.48268 3.48267,-3.48268c1.92342,0 3.48267,1.55925 3.48267,3.48268c0,1.92343 -1.55925,3.48267 -3.48267,3.48267c-1.92343,0 -3.48267,-1.55924 -3.48267,-3.48267z" fill="#006bff" stroke="none" stroke-width="0" stroke-linecap="butt"/><path d="M248.51756,178.47982c0,-1.16779 0.94668,-2.11448 2.11448,-2.11448c1.16779,0 2.11448,0.94669 2.11448,2.11448c0,1.16779 -0.94669,2.11448 -2.11448,2.11448c-1.16779,0 -2.11448,-0.94668 -2.11448,-2.11448z" fill="#006bff" stroke="none" stroke-width="0" stroke-linecap="butt"/></g></g></svg>