<svg version="1.1" xmlns="http://www.w3.org/2000/svg" xmlns:xlink="http://www.w3.org/1999/xlink" width="38.07301" height="38.07302" viewBox="0,0,38.07301,38.07302"><g transform="translate(-220.9635,-160.96349)"><g data-paper-data="{&quot;isPaintingLayer&quot;:true}" fill-rule="nonzero" stroke="#000000" stroke-width="2.5" stroke-linejoin="miter" stroke-miterlimit="10" stroke-dasharray="" stroke-dashoffset="0" style="mix-blend-mode: normal"><path d="M222.2135,180c0,-9.82322 7.96329,-17.78651 17.78651,-17.78651c9.82322,0 17.7865,7.96329 17.7865,17.78651c0,9.82322 -7.96329,17.78651 -17.7865,17.78651c-9.82322,0 -17.78651,-7.96329 -17.78651,-17.78651z" fill="#e0e0e0" stroke-linecap="butt"/><path d="M243.625,172.5l5.5,5.5" fill="none" stroke-linecap="round"/><path d="M249.125,172.5l-5.5,5.5" fill="none" stroke-linecap="round"/><path d="M230.625,172.5l5.5,5.5" fill="none" stroke-linecap="round"/><path d="M236.125,172.5l-5.5,5.5" fill="none" stroke-linecap="round"/><path d="M251.95833,186.54167c0,1.69137 -5.26065,3.0625 -11.75,3.0625c-6.48935,0 -11.75,-1.37113 -11.75,-3.0625c0,-1.69137 5.26065,-3.0625 11.75,-3.0625c6.48935,0 11.75,1.37113 11.75,3.0625z" fill="#e0e0e0" stroke-linecap="butt"/><path d="M235.45833,183.97917v4.875" fill="none" stroke-linecap="round"/><path d="M240.58333,184.22917v4.875" fill="none" stroke-linecap="round"/><path d="M245.45833,184.10417v5.25" fill="none" stroke-linecap="round"/></g></g></svg>