<svg version="1.1" xmlns="http://www.w3.org/2000/svg" xmlns:xlink="http://www.w3.org/1999/xlink" width="38.07301" height="38.07302" viewBox="0,0,38.07301,38.07302"><g transform="translate(-220.96351,-160.9635)"><g data-paper-data="{&quot;isPaintingLayer&quot;:true}" fill-rule="nonzero" stroke="#000000" stroke-width="2.5" stroke-linejoin="miter" stroke-miterlimit="10" stroke-dasharray="" stroke-dashoffset="0" style="mix-blend-mode: normal"><path d="M222.21351,180.00001c0,-9.82322 7.96329,-17.78651 17.78651,-17.78651c9.82322,0 17.7865,7.96329 17.7865,17.78651c0,9.82322 -7.96329,17.78651 -17.7865,17.78651c-9.82322,0 -17.78651,-7.96329 -17.78651,-17.78651z" fill="#ffe500" stroke-linecap="butt"/><path d="M231.32822,175.71869c0,-1.30518 1.05806,-2.36324 2.36324,-2.36324c1.30518,0 2.36324,1.05806 2.36324,2.36324c0,1.30518 -1.05806,2.36324 -2.36324,2.36324c-1.30518,0 -2.36324,-1.05806 -2.36324,-2.36324z" fill="#000000" stroke-linecap="butt"/><path d="M244.03985,175.74343c0,-1.30518 1.05805,-2.36325 2.36324,-2.36325c1.30518,0 2.36324,1.05806 2.36324,2.36325c0,1.30518 -1.05805,2.36324 -2.36324,2.36324c-1.30518,0 -2.36324,-1.05805 -2.36324,-2.36324z" fill="#000000" stroke-linecap="butt"/><path d="M252.14816,182.67969c0,0 -0.88579,4.66479 -4.55633,7.50676c-1.83915,1.15725 -2.73211,2.00538 -7.15586,1.964c-5.90797,-0.05527 -6.834,-2.09083 -8.65385,-3.53711c-2.29657,-1.82514 -3.58262,-5.93365 -3.58262,-5.93365z" fill="#ffffff" stroke-linecap="round"/><path d="M235.06251,184.00001v5.875" fill="none" stroke-linecap="round"/><path d="M240.56251,182.87501v8.375" fill="none" stroke-linecap="round"/><path d="M246.06251,183.50001v6.5" fill="none" stroke-linecap="round"/></g></g></svg>