<svg version="1.1" xmlns="http://www.w3.org/2000/svg" xmlns:xlink="http://www.w3.org/1999/xlink" width="92.5" height="92.625" viewBox="0,0,92.5,92.625"><g transform="translate(-193.75,-133.75)"><g data-paper-data="{&quot;isPaintingLayer&quot;:true}" fill-rule="nonzero" stroke="#000000" stroke-width="5" stroke-linejoin="miter" stroke-miterlimit="10" stroke-dasharray="" stroke-dashoffset="0" style="mix-blend-mode: normal"><path d="M196.25,180c0,-24.16246 19.58754,-43.75 43.75,-43.75c24.16246,0 43.75,19.58754 43.75,43.75c0,24.16246 -19.58754,43.75 -43.75,43.75c-24.16246,0 -43.75,-19.58754 -43.75,-43.75z" fill="#ffffff" stroke-linecap="butt"/><path d="M219.21911,166.125c0,-10.63148 8.61852,-19.25 19.25,-19.25c10.63148,0 19.25,8.61852 19.25,19.25c0,10.63148 -8.61852,19.25 -19.25,19.25c-10.63148,0 -19.25,-8.61852 -19.25,-19.25z" fill="#a5a5a5" stroke-linecap="butt"/><path d="M213.28089,212.875c0,0 5.66015,-24.85764 25.70811,-25.25017c22.88741,-0.44813 29.23011,25.50017 29.23011,25.50017c0,0 -11.06274,10.5 -28.09411,10.75c-18.15441,0.26648 -26.84411,-11 -26.84411,-11z" fill="#a5a5a5" stroke-linecap="round"/></g></g></svg>