<svg version="1.1" xmlns="http://www.w3.org/2000/svg" xmlns:xlink="http://www.w3.org/1999/xlink" width="38.07301" height="38.07302" viewBox="0,0,38.07301,38.07302"><g transform="translate(-220.9635,-160.9635)"><g data-paper-data="{&quot;isPaintingLayer&quot;:true}" fill-rule="nonzero" stroke="#000000" stroke-width="2.5" stroke-linejoin="miter" stroke-miterlimit="10" stroke-dasharray="" stroke-dashoffset="0" style="mix-blend-mode: normal"><path d="M222.21351,180.00001c0,-9.82322 7.96329,-17.78651 17.78651,-17.78651c9.82322,0 17.7865,7.96329 17.7865,17.78651c0,9.82322 -7.96329,17.78651 -17.7865,17.78651c-9.82322,0 -17.78651,-7.96329 -17.78651,-17.78651z" fill="#ffe500" stroke-linecap="butt"/><path d="M233.07822,176.09369c0,-1.30518 -6.44194,-1.73824 -5.13676,-1.73824c1.30518,0 7.86324,-1.31694 7.86324,-0.01176c0,1.30518 -0.80806,3.73824 -2.11324,3.73824c-1.30518,0 -0.61324,-0.68306 -0.61324,-1.98824z" fill="#000000" stroke-linecap="butt"/><path d="M245.78985,175.86843c0,-1.30518 -5.19195,-1.86325 -3.88676,-1.86325c1.30518,0 6.61324,-1.06694 6.61324,0.23825c0,1.30518 -0.80805,3.86324 -2.11324,3.86324c-1.30518,0 -0.61324,-0.93305 -0.61324,-2.23824z" fill="#000000" stroke-linecap="butt"/><path d="M248.49281,183.55469c0,0 2.98552,2.81592 0.79774,4.75718c-1.76085,1.79337 -3.0979,1.61773 -6.13066,1.58936c-4.05028,-0.03789 -4.33527,-0.78714 -7.08289,-1.40365c-3.44944,-1.25125 -6.5025,-4.06789 -6.5025,-4.06789z" fill="#ffffff" stroke-linecap="round"/><path d="M236.9375,185.25l2,3.25" fill="none" stroke-linecap="round"/><path d="M242.5625,183.875l2.375,4.75" fill="none" stroke-linecap="round"/></g></g></svg>