<svg version="1.1" xmlns="http://www.w3.org/2000/svg" xmlns:xlink="http://www.w3.org/1999/xlink" width="38.07301" height="38.07302" viewBox="0,0,38.07301,38.07302"><g transform="translate(-220.96351,-160.9635)"><g data-paper-data="{&quot;isPaintingLayer&quot;:true}" fill-rule="nonzero" stroke-linejoin="miter" stroke-miterlimit="10" stroke-dasharray="" stroke-dashoffset="0" style="mix-blend-mode: normal"><path d="M222.21352,180.00002c0,-9.82322 7.96329,-17.78651 17.78651,-17.78651c9.82322,0 17.7865,7.96329 17.7865,17.78651c0,9.82322 -7.96329,17.78651 -17.7865,17.78651c-9.82322,0 -17.78651,-7.96329 -17.78651,-17.78651z" fill="#ffe500" stroke="#000000" stroke-width="2.5" stroke-linecap="butt"/><path d="M248.49282,183.5547c0,0 -0.26448,2.94092 -2.95226,4.63218c-1.26085,0.79337 -2.4729,1.11773 -5.50566,1.08936c-4.05028,-0.03789 -4.08527,-0.66214 -5.33289,-1.65365c-1.57444,-1.25125 -2.6275,-4.06789 -2.6275,-4.06789" fill="none" stroke="#000000" stroke-width="2.5" stroke-linecap="round"/><path d="M230.29695,174.10425c-0.45306,-1.20965 0.46968,-2.84509 1.65991,-2.98169c2.23636,-0.25666 1.62235,1.98602 2.12354,2.11543c0.18451,0.04764 -0.05933,-2.1918 2.24164,-2.02951c1.30532,0.09206 2.13316,1.72263 1.56692,3.01199c-1.09997,2.50464 -2.45452,3.96648 -3.86007,3.92477c-1.40223,-0.04161 -2.89079,-1.79515 -3.73194,-4.04098z" fill="#ff8080" stroke="none" stroke-width="0" stroke-linecap="butt"/><path d="M242.89694,174.30424c-0.45306,-1.20965 0.46968,-2.84509 1.65991,-2.98169c2.23636,-0.25666 1.62235,1.98602 2.12354,2.11542c0.18452,0.04764 -0.05933,-2.1918 2.24164,-2.02951c1.30533,0.09206 2.13317,1.72263 1.56692,3.01199c-1.09996,2.50465 -2.45453,3.96648 -3.86007,3.92477c-1.40223,-0.04162 -2.89079,-1.79515 -3.73194,-4.04098z" fill="#ff8080" stroke="none" stroke-width="0" stroke-linecap="butt"/></g></g></svg>