<svg version="1.1" xmlns="http://www.w3.org/2000/svg" xmlns:xlink="http://www.w3.org/1999/xlink" width="38.07301" height="38.07302" viewBox="0,0,38.07301,38.07302"><g transform="translate(-220.9635,-160.96349)"><g data-paper-data="{&quot;isPaintingLayer&quot;:true}" fill-rule="nonzero" stroke="#000000" stroke-width="2.5" stroke-linejoin="miter" stroke-miterlimit="10" stroke-dasharray="" stroke-dashoffset="0" style="mix-blend-mode: normal"><path d="M222.21351,180.00001c0,-9.82322 7.96329,-17.78651 17.78651,-17.78651c9.82322,0 17.7865,7.96329 17.7865,17.78651c0,9.82322 -7.96329,17.78651 -17.7865,17.78651c-9.82322,0 -17.78651,-7.96329 -17.78651,-17.78651z" fill="#ffe500" stroke-linecap="butt"/><path d="M231.32822,175.71869c0,-1.30518 1.05806,-2.36324 2.36324,-2.36324c1.30518,0 2.36324,1.05806 2.36324,2.36324c0,1.30518 -1.05806,2.36324 -2.36324,2.36324c-1.30518,0 -2.36324,-1.05806 -2.36324,-2.36324z" fill="#000000" stroke-linecap="butt"/><path d="M244.03985,175.74343c0,-1.30518 1.05805,-2.36325 2.36324,-2.36325c1.30518,0 2.36324,1.05806 2.36324,2.36325c0,1.30518 -1.05805,2.36324 -2.36324,2.36324c-1.30518,0 -2.36324,-1.05805 -2.36324,-2.36324z" fill="#000000" stroke-linecap="butt"/><path d="M232.0745,183.55469c0,0 1.05306,2.81664 2.6275,4.06789c1.24762,0.99151 1.28261,1.61576 5.33289,1.65365c3.03276,0.02837 4.24481,-0.29599 5.50566,-1.08936c2.68778,-1.69126 2.95226,-4.63218 2.95226,-4.63218" fill="none" stroke-linecap="round"/></g></g></svg>