<svg version="1.1" xmlns="http://www.w3.org/2000/svg" xmlns:xlink="http://www.w3.org/1999/xlink" width="42.39068" height="40.75845" viewBox="0,0,42.39068,40.75845"><g transform="translate(-218.80468,-159.62078)"><g data-paper-data="{&quot;isPaintingLayer&quot;:true}" fill-rule="nonzero" stroke="#000000" stroke-width="2.5" stroke-linejoin="miter" stroke-miterlimit="10" stroke-dasharray="" stroke-dashoffset="0" style="mix-blend-mode: normal"><path d="M221.47181,180c0,-2.17482 1.47198,-3.62661 0.89379,-6.0083c-0.56886,-2.34324 -3.19801,-5.62104 -2.00298,-7.20812c1.68499,-2.23778 6.7233,-0.46642 10.40765,-1.37304c3.94848,-0.97162 6.5975,-4.53976 9.83077,-4.53976c3.89439,0 4.31973,4.60532 7.37863,6.60402c1.73633,1.13452 5.78695,-0.63617 7.55096,0.47085c3.55886,2.2334 4.41472,7.59456 4.41472,12.05436c0,3.08646 -3.46773,4.71162 -4.05442,7.29295c-0.61052,2.68617 1.61354,6.30082 -0.81314,8.07832c-1.74353,1.27711 -5.66345,0.1211 -8.58291,0.76552c-2.47821,0.54703 -3.93498,2.99243 -5.89385,2.99243c-6.13468,0 -5.35705,-5.25385 -8.85758,-9.74419c-1.00157,-1.28478 -5.83334,0.46696 -7.66647,-0.60158c-2.79349,-1.62833 -2.60517,-6.10864 -2.60517,-8.78347z" fill="#ffe500" stroke-linecap="butt"/><path d="M231.70479,175.61059c0,-1.40371 1.13793,-2.54164 2.54164,-2.54164c1.40371,0 2.54164,1.13793 2.54164,2.54164c0,1.40371 -1.13793,2.54164 -2.54164,2.54164c-1.40371,0 -2.54164,-1.13793 -2.54164,-2.54164z" fill="#000000" stroke-linecap="butt"/><path d="M245.37604,175.63721c0,-1.40371 1.13792,-2.54165 2.54164,-2.54165c1.40371,0 2.54164,1.13793 2.54164,2.54165c0,1.40371 -1.13792,2.54164 -2.54164,2.54164c-1.40371,0 -2.54164,-1.13792 -2.54164,-2.54164z" fill="#000000" stroke-linecap="butt"/><path d="M230.1,183.2c0,0 2.42454,2.60021 4.20357,2.76032c1.17457,0.10571 1.49655,-2.56318 3.81196,-2.70286c0.67887,-0.04095 0.84301,2.82753 1.56952,2.60888c1.93158,-0.58132 2.73313,-1.82245 4.613,-1.90866c1.19161,-0.05464 1.35232,2.73055 2.49495,2.84603c2.80996,0.28399 3.30699,-1.80372 3.30699,-1.80372" fill="none" stroke-linecap="round"/></g></g></svg>