<svg version="1.1" xmlns="http://www.w3.org/2000/svg" xmlns:xlink="http://www.w3.org/1999/xlink" width="38.07301" height="38.07302" viewBox="0,0,38.07301,38.07302"><g transform="translate(-220.9635,-160.96349)"><g data-paper-data="{&quot;isPaintingLayer&quot;:true}" fill-rule="nonzero" stroke="#000000" stroke-width="2.5" stroke-linejoin="miter" stroke-miterlimit="10" stroke-dasharray="" stroke-dashoffset="0" style="mix-blend-mode: normal"><path d="M222.2135,180c0,-9.82322 7.96329,-17.78651 17.78651,-17.78651c9.82322,0 17.7865,7.96329 17.7865,17.78651c0,9.82322 -7.96329,17.78651 -17.7865,17.78651c-9.82322,0 -17.78651,-7.96329 -17.78651,-17.78651z" fill="#ffe500" stroke-linecap="butt"/><path d="M248.71906,185.598c0,1.30518 -1.05806,2.36324 -2.36324,2.36324c-1.30518,0 -2.36324,-1.05806 -2.36324,-2.36324c0,-1.30518 1.05806,-2.36324 2.36324,-2.36324c1.30518,0 2.36324,1.05806 2.36324,2.36324z" fill="#000000" stroke-linecap="butt"/><path d="M236.00743,185.57326c0,1.30518 -1.05805,2.36325 -2.36324,2.36325c-1.30518,0 -2.36324,-1.05806 -2.36324,-2.36325c0,-1.30518 1.05805,-2.36324 2.36324,-2.36324c1.30518,0 2.36324,1.05805 2.36324,2.36324z" fill="#000000" stroke-linecap="butt"/><path d="M231.55447,177.762c0,0 0.26448,-2.94092 2.95226,-4.63218c1.26085,-0.79337 2.4729,-1.11773 5.50566,-1.08936c4.05028,0.03789 4.08527,0.66214 5.33289,1.65365c1.57444,1.25125 2.6275,4.06789 2.6275,4.06789" fill="none" stroke-linecap="round"/></g></g></svg>