<svg version="1.1" xmlns="http://www.w3.org/2000/svg" xmlns:xlink="http://www.w3.org/1999/xlink" width="51.4" height="51.4" viewBox="0,0,51.4,51.4"><g transform="translate(-214.3,-154.3)"><g data-paper-data="{&quot;isPaintingLayer&quot;:true}" fill-rule="nonzero" stroke-linejoin="miter" stroke-miterlimit="10" stroke-dasharray="" stroke-dashoffset="0" style="mix-blend-mode: normal"><path d="M216.8,180c0,-12.81301 10.38699,-23.2 23.2,-23.2c12.81301,0 23.2,10.38699 23.2,23.2c0,12.81301 -10.38699,23.2 -23.2,23.2c-12.81301,0 -23.2,-10.38699 -23.2,-23.2z" fill="#ffffff" stroke="none" stroke-width="0" stroke-linecap="butt"/><path d="M254.21121,167.75858c0,0 -33.01785,-2.5066 -31.61796,7.25276c1.47505,10.28331 33.58581,-2.84458 34.58417,6.16648c1.40558,12.68658 -31.5149,10.57986 -31.5149,10.57986" fill="none" stroke="#a780ff" stroke-width="8" stroke-linecap="round"/><path d="M216.8,180c0,-12.81301 10.38699,-23.2 23.2,-23.2c12.81301,0 23.2,10.38699 23.2,23.2c0,12.81301 -10.38699,23.2 -23.2,23.2c-12.81301,0 -23.2,-10.38699 -23.2,-23.2z" fill="none" stroke="#80afff" stroke-width="5" stroke-linecap="butt"/><path d="M232.85599,163.68938l-5.97485,29.20912" fill="none" stroke="#ffe280" stroke-width="8" stroke-linecap="round"/><path d="M251.5004,166.03009l-14.03839,19.68984l19.38173,0.37612" fill="none" stroke="#ffe280" stroke-width="8" stroke-linecap="round"/><path d="M251.82737,165.93228l-5.64253,30.29082" fill="none" stroke="#ffe280" stroke-width="8" stroke-linecap="round"/><path d="M232.86053,163.69393l-5.97485,29.20912" fill="none" stroke="#ff8080" stroke-width="4" stroke-linecap="round"/><path d="M251.50494,166.03464l-14.03839,19.68983l19.38173,0.37612" fill="none" stroke="#ff8080" stroke-width="4" stroke-linecap="round"/><path d="M251.83191,165.93683l-5.64253,30.29081" fill="none" stroke="#ff8080" stroke-width="4" stroke-linecap="round"/></g></g></svg>