<svg version="1.1" xmlns="http://www.w3.org/2000/svg" xmlns:xlink="http://www.w3.org/1999/xlink" width="51.4" height="51.4" viewBox="0,0,51.4,51.4"><g transform="translate(-214.3,-154.3)"><g data-paper-data="{&quot;isPaintingLayer&quot;:true}" fill-rule="nonzero" stroke="#000000" stroke-width="5" stroke-linejoin="miter" stroke-miterlimit="10" stroke-dasharray="" stroke-dashoffset="0" style="mix-blend-mode: normal"><path d="M216.8,180c0,-12.81301 10.38699,-23.2 23.2,-23.2c12.81301,0 23.2,10.38699 23.2,23.2c0,12.81301 -10.38699,23.2 -23.2,23.2c-12.81301,0 -23.2,-10.38699 -23.2,-23.2z" fill="#4bd219" stroke-linecap="butt"/><path d="M248.93982,174.01929c0,-1.18203 0.95823,-2.14026 2.14026,-2.14026c1.18203,0 2.14026,0.95823 2.14026,2.14026c0,1.18203 -0.95823,2.14026 -2.14026,2.14026c-1.18203,0 -2.14026,-0.95823 -2.14026,-2.14026z" fill="#000000" stroke-linecap="butt"/><path d="M226.77967,174.05156c0,-1.18203 0.95823,-2.14026 2.14026,-2.14026c1.18203,0 2.14026,0.95823 2.14026,2.14026c0,1.18203 -0.95823,2.14026 -2.14026,2.14026c-1.18203,0 -2.14026,-0.95823 -2.14026,-2.14026z" fill="#000000" stroke-linecap="butt"/><path d="M237.85975,173.87947c0,-1.18203 0.95823,-2.14026 2.14026,-2.14026c1.18203,0 2.14026,0.95823 2.14026,2.14026c0,1.18203 -0.95823,2.14026 -2.14026,2.14026c-1.18203,0 -2.14026,-0.95823 -2.14026,-2.14026z" fill="#000000" stroke-linecap="butt"/><path d="M253.6,183.9943c0,0 -2.71289,9.20802 -13.6,9.4c-10.37948,0.18303 -13.6,-9 -13.6,-9" fill="none" stroke-linecap="round"/></g></g></svg>