<svg version="1.1" xmlns="http://www.w3.org/2000/svg" xmlns:xlink="http://www.w3.org/1999/xlink" width="51.4" height="51.4" viewBox="0,0,51.4,51.4"><g transform="translate(-214.3,-154.3)"><g data-paper-data="{&quot;isPaintingLayer&quot;:true}" fill-rule="nonzero" stroke="#000000" stroke-width="5" stroke-linejoin="miter" stroke-miterlimit="10" stroke-dasharray="" stroke-dashoffset="0" style="mix-blend-mode: normal"><path d="M216.8,180c0,-12.81301 10.38699,-23.2 23.2,-23.2c12.81301,0 23.2,10.38699 23.2,23.2c0,12.81301 -10.38699,23.2 -23.2,23.2c-12.81301,0 -23.2,-10.38699 -23.2,-23.2z" fill="#ff9300" stroke-linecap="butt"/><path d="M228.21818,190.51821c0,0 0.89471,-5.11711 11.78182,-5.30909c10.37948,-0.18303 12.38788,5.06061 12.38788,5.06061" fill="none" stroke-linecap="round"/><path d="M245.38152,174.60861c0,-1.68852 1.36943,-3.10262 3.05734,-3.05734c13.18074,0.35361 1.99652,-0.04561 1.99652,1.64291c0,1.68852 -0.308,4.47178 -1.99652,4.47178c-1.68852,0 -3.05734,-1.36883 -3.05734,-3.05735z" fill="#000000" stroke-linecap="butt"/><path d="M230.80224,173.24468c0,-1.68852 -10.65381,-1.99652 0.7589,-1.81972c1.68832,0.02616 3.05735,1.36882 3.05735,3.05734c0,1.68852 -1.36883,3.05735 -3.05735,3.05735c-1.68852,0 -0.7589,-2.60645 -0.7589,-4.29497z" fill="#000000" stroke-linecap="butt"/></g></g></svg>