<svg version="1.1" xmlns="http://www.w3.org/2000/svg" xmlns:xlink="http://www.w3.org/1999/xlink" width="51.4" height="51.4" viewBox="0,0,51.4,51.4"><g transform="translate(-214.3,-154.3)"><g data-paper-data="{&quot;isPaintingLayer&quot;:true}" fill-rule="nonzero" stroke-linejoin="miter" stroke-miterlimit="10" stroke-dasharray="" stroke-dashoffset="0" style="mix-blend-mode: normal"><path d="M216.8,180c0,-12.81301 10.38699,-23.2 23.2,-23.2c12.81301,0 23.2,10.38699 23.2,23.2c0,12.81301 -10.38699,23.2 -23.2,23.2c-12.81301,0 -23.2,-10.38699 -23.2,-23.2z" fill="#ffffff" stroke="#000000" stroke-width="5" stroke-linecap="butt"/><path d="M234.14901,171.18786c0,0 1.97389,-6.30142 7.91201,-6.71317c5.15975,-0.35778 8.50574,2.57274 8.95807,6.90901c0.45457,4.35773 -0.73116,6.2105 -3.97126,7.50719c-4.7392,1.89663 -4.47111,6.14678 -4.47111,6.14678" fill="none" stroke="#ffe500" stroke-width="5" stroke-linecap="round"/><path d="M239.16046,194.88843c-0.17405,-2.01902 1.3216,-3.79687 3.34062,-3.97092c2.01902,-0.17405 3.79687,1.3216 3.97092,3.34062c0.17405,2.01902 -1.3216,3.79688 -3.34062,3.97092c-2.01902,0.17405 -3.79687,-1.3216 -3.97092,-3.34062z" fill="#ffe500" stroke="#ff0000" stroke-width="0" stroke-linecap="butt"/><path d="M231.42362,171.15064c0,0 1.97389,-6.30142 7.91201,-6.71317c5.15975,-0.35778 8.50574,2.57274 8.95807,6.90901c0.45457,4.35773 -0.73116,6.2105 -3.97126,7.50719c-4.7392,1.89663 -4.47111,6.14678 -4.47111,6.14678" fill="none" stroke="#000000" stroke-width="5" stroke-linecap="round"/><path d="M236.43507,194.85121c-0.17405,-2.01902 1.3216,-3.79687 3.34062,-3.97092c2.01902,-0.17405 3.79687,1.3216 3.97092,3.34062c0.17405,2.01902 -1.3216,3.79688 -3.34062,3.97092c-2.01902,0.17405 -3.79687,-1.3216 -3.97092,-3.34062z" fill="#000000" stroke="#000000" stroke-width="0" stroke-linecap="butt"/></g></g></svg>