<svg version="1.1" xmlns="http://www.w3.org/2000/svg" xmlns:xlink="http://www.w3.org/1999/xlink" width="41.9192" height="50.25155" viewBox="0,0,41.9192,50.25155"><g transform="translate(-218.33459,-154.90268)"><g data-paper-data="{&quot;isPaintingLayer&quot;:true}" fill-rule="nonzero" stroke="#000000" stroke-width="4" stroke-linejoin="miter" stroke-miterlimit="10" stroke-dasharray="" stroke-dashoffset="0" style="mix-blend-mode: normal"><path d="M244.81674,156.91694c0,0 10.45478,-0.28297 13.43705,3.46616c1.32856,4.45184 -9.28734,3.62178 -12.34719,3.84686c-5.13627,0.37782 -5.46389,2.38152 -0.6933,2.36251c4.62154,-0.01842 14.2352,-0.46089 14.4503,3.75735c0.15912,3.12034 -10.26547,3.35849 -13.21933,3.6479c-6.65097,0.65166 -4.68,-0.05174 -0.76407,0.28184c4.15247,0.35374 13.87322,0.98288 13.87168,4.54645c0.17911,4.62768 -17.48493,2.85997 -17.48493,2.85997c0,0 0.3263,2.63746 1.07047,9.55057c-0.34763,5.52145 1.62068,12.06032 -4.20229,11.91531c-4.47438,-0.01736 -5.70469,-5.77383 -6.17828,-11.36167c-0.12115,-6.33223 -0.19442,-27.30612 -0.24526,-31.86754c3.94029,-3.74749 12.67438,-3.01997 12.67438,-3.01997" data-paper-data="{&quot;index&quot;:null}" fill="#ffde00" stroke-linecap="round"/><path d="M230.46972,160.09566l0,21.75676l-10.13513,0l0,-21.75676z" data-paper-data="{&quot;index&quot;:null}" fill="#23a900" stroke-linecap="butt"/></g></g></svg>
