<svg version="1.1" xmlns="http://www.w3.org/2000/svg" xmlns:xlink="http://www.w3.org/1999/xlink" width="51.4" height="51.4" viewBox="0,0,51.4,51.4"><g transform="translate(-214.3,-154.3)"><g data-paper-data="{&quot;isPaintingLayer&quot;:true}" fill-rule="nonzero" stroke-linejoin="miter" stroke-miterlimit="10" stroke-dasharray="" stroke-dashoffset="0" style="mix-blend-mode: normal"><path d="" fill="#ffea00" stroke="#000000" stroke-width="5" stroke-linecap="butt"/><path d="" fill="#000000" stroke="#000000" stroke-width="5" stroke-linecap="butt"/><path d="" fill="#000000" stroke="#000000" stroke-width="5" stroke-linecap="butt"/><path d="" fill="#ffffff" stroke="#000000" stroke-width="3.5" stroke-linecap="round"/><path d="" fill="none" stroke="#000000" stroke-width="3.5" stroke-linecap="round"/><path d="" fill="none" stroke="#000000" stroke-width="3.5" stroke-linecap="round"/><path d="" fill="none" stroke="#000000" stroke-width="3.5" stroke-linecap="round"/><path d="M216.8,180c0,-12.81301 10.38699,-23.2 23.2,-23.2c12.81301,0 23.2,10.38699 23.2,23.2c0,12.81301 -10.38699,23.2 -23.2,23.2c-12.81301,0 -23.2,-10.38699 -23.2,-23.2z" fill="#ffffff" stroke="#000000" stroke-width="5" stroke-linecap="butt"/><path d="M245.38151,174.60861c0,-1.68852 1.36882,-3.05734 3.05734,-3.05734c1.68852,0 3.05734,1.36882 3.05734,3.05734c0,1.68852 -1.36882,3.05735 -3.05734,3.05735c-1.68852,0 -3.05734,-1.36883 -3.05734,-3.05735z" fill="#00c1ff" stroke="#00c1ff" stroke-width="5" stroke-linecap="butt"/><path d="M228.5038,174.48229c0,-1.68852 1.36882,-3.05734 3.05734,-3.05734c1.68852,0 3.05735,1.36882 3.05735,3.05734c0,1.68852 -1.36883,3.05735 -3.05735,3.05735c-1.68852,0 -3.05734,-1.36883 -3.05734,-3.05735z" fill="#00c1ff" stroke="#00c1ff" stroke-width="5" stroke-linecap="butt"/><path d="M226.44907,189.05209v-2.75862h27.24138v2.75862z" fill="none" stroke="#005dff" stroke-width="5" stroke-linecap="butt"/><path d="M231.62148,184.56933v5.86207" fill="none" stroke="#00c1ff" stroke-width="2.5" stroke-linecap="round"/><path d="M240.587,184.56932v5.86207" fill="none" stroke="#00c1ff" stroke-width="2.5" stroke-linecap="round"/><path d="M248.86286,184.56933v5.86207" fill="none" stroke="#00c1ff" stroke-width="2.5" stroke-linecap="round"/></g></g></svg>