<svg version="1.1" xmlns="http://www.w3.org/2000/svg" xmlns:xlink="http://www.w3.org/1999/xlink" width="51.4" height="51.4" viewBox="0,0,51.4,51.4"><g transform="translate(-214.3,-154.3)"><g data-paper-data="{&quot;isPaintingLayer&quot;:true}" fill-rule="nonzero" stroke="#000000" stroke-linejoin="miter" stroke-miterlimit="10" stroke-dasharray="" stroke-dashoffset="0" style="mix-blend-mode: normal"><path d="M216.8,180c0,-12.81301 10.38699,-23.2 23.2,-23.2c12.81301,0 23.2,10.38699 23.2,23.2c0,12.81301 -10.38699,23.2 -23.2,23.2c-12.81301,0 -23.2,-10.38699 -23.2,-23.2z" fill="#b3b3b3" stroke-width="5" stroke-linecap="butt"/><path d="M244.56081,170.64189l7.90541,7.90541" fill="none" stroke-width="4" stroke-linecap="round"/><path d="M252.60135,170.64189l-7.9054,7.90541" fill="none" stroke-width="4" stroke-linecap="round"/><path d="M227.39865,170.64189l7.90541,7.90541" fill="none" stroke-width="4" stroke-linecap="round"/><path d="M235.43919,170.64189l-7.90541,7.90541" fill="none" stroke-width="4" stroke-linecap="round"/><path d="M254.33668,188.10811c0,2.10282 -6.41875,3.8075 -14.33668,3.8075c-7.91793,0 -14.33668,-1.70467 -14.33668,-3.8075c0,-2.10282 6.41875,-3.8075 14.33668,-3.8075c7.91793,0 14.33668,1.70469 14.33668,3.8075z" fill="none" stroke-width="4" stroke-linecap="butt"/><path d="M240,186.12475v4.08691" fill="none" stroke-width="4" stroke-linecap="round"/><path d="M247.09199,185.88435v4.08691" fill="none" stroke-width="4" stroke-linecap="round"/><path d="M232.90801,185.88435v4.08691" fill="none" stroke-width="4" stroke-linecap="round"/></g></g></svg>