<svg version="1.1" xmlns="http://www.w3.org/2000/svg" xmlns:xlink="http://www.w3.org/1999/xlink" width="51.4" height="51.4" viewBox="0,0,51.4,51.4"><g transform="translate(-214.3,-154.3)"><g data-paper-data="{&quot;isPaintingLayer&quot;:true}" fill-rule="nonzero" stroke-linejoin="miter" stroke-miterlimit="10" stroke-dasharray="" stroke-dashoffset="0" style="mix-blend-mode: normal"><path d="M216.8,180c0,-12.81301 10.38699,-23.2 23.2,-23.2c12.81301,0 23.2,10.38699 23.2,23.2c0,12.81301 -10.38699,23.2 -23.2,23.2c-12.81301,0 -23.2,-10.38699 -23.2,-23.2z" fill="#ffea00" stroke="#000000" stroke-width="5" stroke-linecap="butt"/><path d="M253.6,183.9943c0,0 -2.71289,9.20802 -13.6,9.4c-10.37948,0.18303 -13.6,-9 -13.6,-9" fill="none" stroke="#000000" stroke-width="5" stroke-linecap="round"/><path d="M225.38336,172.44082c0,-1.06033 0.85956,-1.91989 1.91989,-1.91989c1.06033,0 1.91989,0.85956 1.91989,1.91989c0,1.06033 -0.85956,1.91989 -1.91989,1.91989c-1.06033,0 -1.91989,-0.85956 -1.91989,-1.91989z" fill="#ff8080" stroke="#ff8080" stroke-width="3" stroke-linecap="butt"/><path d="M231.83746,172.44082c0,-1.06033 0.85956,-1.91989 1.91989,-1.91989c1.06033,0 1.91989,0.85956 1.91989,1.91989c0,1.06033 -0.85956,1.91989 -1.91989,1.91989c-1.06033,0 -1.91989,-0.85956 -1.91989,-1.91989z" fill="#ff8080" stroke="#ff8080" stroke-width="3" stroke-linecap="butt"/><path d="M225.8717,173.78278l4.58613,4.78721" fill="none" stroke="#ff8080" stroke-width="3" stroke-linecap="round"/><path d="M235.18844,173.70562l-4.58613,4.78721" fill="none" stroke="#ff8080" stroke-width="3" stroke-linecap="round"/><path d="M228.40617,175.09599c0,-1.21825 0.98759,-2.20584 2.20584,-2.20584c1.21825,0 2.20584,0.98759 2.20584,2.20584c0,1.21825 -0.98759,2.20584 -2.20584,2.20584c-1.21825,0 -2.20584,-0.98759 -2.20584,-2.20584z" fill="#ff8080" stroke="#ff8080" stroke-width="3" stroke-linecap="butt"/><path d="M244.32275,172.74385c0,-1.06033 0.85957,-1.91989 1.9199,-1.91989c1.06033,0 1.91989,0.85957 1.91989,1.91989c0,1.06033 -0.85956,1.91989 -1.91989,1.91989c-1.06033,0 -1.9199,-0.85956 -1.9199,-1.91989z" fill="#ff8080" stroke="#ff8080" stroke-width="3" stroke-linecap="butt"/><path d="M250.77686,172.74385c0,-1.06033 0.85957,-1.91989 1.91989,-1.91989c1.06033,0 1.91989,0.85957 1.91989,1.91989c0,1.06033 -0.85956,1.91989 -1.91989,1.91989c-1.06033,0 -1.91989,-0.85956 -1.91989,-1.91989z" fill="#ff8080" stroke="#ff8080" stroke-width="3" stroke-linecap="butt"/><path d="M244.81109,174.08581l4.58613,4.78721" fill="none" stroke="#ff8080" stroke-width="3" stroke-linecap="round"/><path d="M254.12784,174.00865l-4.58613,4.78721" fill="none" stroke="#ff8080" stroke-width="3" stroke-linecap="round"/><path d="M247.34556,175.39902c0,-1.21825 0.98758,-2.20583 2.20583,-2.20583c1.21825,0 2.20584,0.98758 2.20584,2.20583c0,1.21825 -0.98758,2.20584 -2.20584,2.20584c-1.21825,0 -2.20583,-0.98758 -2.20583,-2.20584z" fill="#ff8080" stroke="#ff8080" stroke-width="3" stroke-linecap="butt"/></g></g></svg>