<svg version="1.1" xmlns="http://www.w3.org/2000/svg" xmlns:xlink="http://www.w3.org/1999/xlink" width="51.4" height="51.4" viewBox="0,0,51.4,51.4"><g transform="translate(-214.3,-154.3)"><g data-paper-data="{&quot;isPaintingLayer&quot;:true}" fill-rule="nonzero" stroke-linejoin="miter" stroke-miterlimit="10" stroke-dasharray="" stroke-dashoffset="0" style="mix-blend-mode: normal"><path d="M216.8,180c0,-12.81301 10.38699,-23.2 23.2,-23.2c12.81301,0 23.2,10.38699 23.2,23.2c0,12.81301 -10.38699,23.2 -23.2,23.2c-12.81301,0 -23.2,-10.38699 -23.2,-23.2z" fill="#ffb700" stroke="none" stroke-width="0" stroke-linecap="butt"/><path d="M226.87031,182.02035c0,-4.8371 3.92124,-8.75834 8.75834,-8.75834c4.8371,0 8.75834,3.92124 8.75834,8.75834c0,4.8371 -3.92124,8.75835 -8.75834,8.75835c-4.8371,0 -8.75834,-3.92125 -8.75834,-8.75835z" fill="none" stroke="#000000" stroke-width="7" stroke-linecap="butt"/><path d="M250.82169,169.09137l0.23833,26.93041l-11.08199,0.35748" fill="none" stroke="#000000" stroke-width="7" stroke-linecap="round"/><path d="M226.87507,182.02511c0,-4.8371 3.92124,-8.75834 8.75834,-8.75834c4.8371,0 8.75834,3.92124 8.75834,8.75834c0,4.8371 -3.92124,8.75834 -8.75834,8.75834c-4.8371,0 -8.75834,-3.92124 -8.75834,-8.75834z" fill="none" stroke="#ffffff" stroke-width="5" stroke-linecap="butt"/><path d="M222.22302,166.94646h35.27169" fill="none" stroke="#000000" stroke-width="7" stroke-linecap="round"/><path d="M250.82645,169.09613l0.23833,26.93041l-11.08199,0.35748" fill="none" stroke="#ffffff" stroke-width="5" stroke-linecap="round"/><path d="M222.22779,166.95123h35.27169" fill="none" stroke="#ffffff" stroke-width="5" stroke-linecap="round"/><path d="M216.8,180c0,-12.81301 10.38699,-23.2 23.2,-23.2c12.81301,0 23.2,10.38699 23.2,23.2c0,12.81301 -10.38699,23.2 -23.2,23.2c-12.81301,0 -23.2,-10.38699 -23.2,-23.2z" fill="none" stroke="#000000" stroke-width="5" stroke-linecap="butt"/></g></g></svg>