<svg version="1.1" xmlns="http://www.w3.org/2000/svg" xmlns:xlink="http://www.w3.org/1999/xlink" width="51.4" height="51.4" viewBox="0,0,51.4,51.4"><g transform="translate(-214.3,-154.3)"><g data-paper-data="{&quot;isPaintingLayer&quot;:true}" fill-rule="nonzero" stroke="#000000" stroke-linejoin="miter" stroke-miterlimit="10" stroke-dasharray="" stroke-dashoffset="0" style="mix-blend-mode: normal"><path d="M216.8,180c0,-12.81301 10.38699,-23.2 23.2,-23.2c12.81301,0 23.2,10.38699 23.2,23.2c0,12.81301 -10.38699,23.2 -23.2,23.2c-12.81301,0 -23.2,-10.38699 -23.2,-23.2z" fill="#ffea00" stroke-width="5" stroke-linecap="butt"/><path d="M234.19544,159.61348l27.67442,27.67442" fill="none" stroke-width="5" stroke-linecap="round"/><path d="M238.49777,172.52046c0,-4.11003 3.33183,-7.44186 7.44186,-7.44186c4.11003,0 7.44186,3.33183 7.44186,7.44186c0,4.11003 -3.33183,7.44186 -7.44186,7.44186c-4.11003,0 -7.44186,-3.33183 -7.44186,-7.44186z" fill="#000000" stroke-width="5" stroke-linecap="butt"/><path d="M225.24799,175.06369c0,-1.68852 1.36882,-3.05734 3.05734,-3.05734c1.68852,0 3.05735,1.36882 3.05735,3.05734c0,1.68852 -1.36883,3.05735 -3.05735,3.05735c-1.68852,0 -3.05734,-1.36883 -3.05734,-3.05735z" fill="#000000" stroke-width="5" stroke-linecap="butt"/><path d="M253.81056,187.24912c0,0 -1.00616,4.2568 -5.17547,6.8502c-2.08906,1.05603 -3.10336,1.82998 -8.12823,1.79223c-6.71077,-0.05043 -7.76263,-1.90796 -9.82977,-3.22775c-2.60864,-1.66551 -4.06944,-5.41468 -4.06944,-5.41468z" fill="#ffffff" stroke-width="3.5" stroke-linecap="round"/><path d="M234.40325,193.81513v-5.36116" fill="none" stroke-width="3.5" stroke-linecap="round"/><path d="M240.65061,195.06986v-7.64251" fill="none" stroke-width="3.5" stroke-linecap="round"/><path d="M246.89798,188.15503v5.9315" fill="none" stroke-width="3.5" stroke-linecap="round"/></g></g></svg>