<svg version="1.1" xmlns="http://www.w3.org/2000/svg" xmlns:xlink="http://www.w3.org/1999/xlink" width="51.4" height="51.4" viewBox="0,0,51.4,51.4"><g transform="translate(-214.3,-154.3)"><g data-paper-data="{&quot;isPaintingLayer&quot;:true}" fill-rule="nonzero" stroke="#000000" stroke-width="5" stroke-linejoin="miter" stroke-miterlimit="10" stroke-dasharray="" stroke-dashoffset="0" style="mix-blend-mode: normal"><path d="M216.8,180c0,-12.81301 10.38699,-23.2 23.2,-23.2c12.81301,0 23.2,10.38699 23.2,23.2c0,12.81301 -10.38699,23.2 -23.2,23.2c-12.81301,0 -23.2,-10.38699 -23.2,-23.2z" fill="#ffea00" stroke-linecap="butt"/><path d="M228.21818,190.51821c0,0 0.89471,-5.11711 11.78182,-5.30909c10.37948,-0.18303 12.38788,5.06061 12.38788,5.06061" fill="none" stroke-linecap="round"/><path d="M245.38152,174.60861c0,-1.68852 1.36882,-3.05734 3.05734,-3.05734c1.68852,0 3.05734,1.36882 3.05734,3.05734c0,1.68852 -1.36882,3.05735 -3.05734,3.05735c-1.68852,0 -3.05734,-1.36883 -3.05734,-3.05735z" fill="#000000" stroke-linecap="butt"/><path d="M228.5038,174.4823c0,-1.68852 1.36882,-3.05734 3.05734,-3.05734c1.68852,0 3.05735,1.36882 3.05735,3.05734c0,1.68852 -1.36883,3.05735 -3.05735,3.05735c-1.68852,0 -3.05734,-1.36883 -3.05734,-3.05735z" fill="#000000" stroke-linecap="butt"/></g></g></svg>