<svg version="1.1" xmlns="http://www.w3.org/2000/svg" xmlns:xlink="http://www.w3.org/1999/xlink" width="51.4" height="51.4" viewBox="0,0,51.4,51.4"><g transform="translate(-214.3,-154.3)"><g data-paper-data="{&quot;isPaintingLayer&quot;:true}" fill-rule="nonzero" stroke-linecap="butt" stroke-linejoin="miter" stroke-miterlimit="10" stroke-dasharray="" stroke-dashoffset="0" style="mix-blend-mode: normal"><path d="M216.8,180c0,-12.81301 10.38699,-23.2 23.2,-23.2c12.81301,0 23.2,10.38699 23.2,23.2c0,12.81301 -10.38699,23.2 -23.2,23.2c-12.81301,0 -23.2,-10.38699 -23.2,-23.2z" fill="#ffea00" stroke="#000000" stroke-width="5"/><path d="M258.7331,172.08301c0.55556,4.38023 -2.50468,9.72222 -18.87085,9.96032c-14.93651,-0.0084 -19.02958,-5.18326 -18.55339,-9.96032c0.41087,-4.12171 7.74278,-12.7381 18.71212,-12.81746c11.36587,-0.08223 18.19094,8.70824 18.71212,12.81746z" fill="#00a8ff" stroke="none" stroke-width="0"/><path d="M245.38151,174.60861c0,-1.68852 1.36882,-3.05734 3.05734,-3.05734c1.68852,0 3.05734,1.36882 3.05734,3.05734c0,1.68852 -1.36882,3.05735 -3.05734,3.05735c-1.68852,0 -3.05734,-1.36883 -3.05734,-3.05735z" fill="#000000" stroke="#000000" stroke-width="5"/><path d="M228.5038,174.48229c0,-1.68852 1.36882,-3.05734 3.05734,-3.05734c1.68852,0 3.05735,1.36882 3.05735,3.05734c0,1.68852 -1.36883,3.05735 -3.05735,3.05735c-1.68852,0 -3.05734,-1.36883 -3.05734,-3.05735z" fill="#000000" stroke="#000000" stroke-width="5"/><path d="M251.99429,187.78648c0,1.50623 -5.35902,2.72727 -11.9697,2.72727c-6.61068,0 -11.9697,-1.22104 -11.9697,-2.72727c0,-1.50623 5.35902,-2.72727 11.9697,-2.72727c6.61068,0 11.9697,1.22105 11.9697,2.72727z" fill="#000000" stroke="#000000" stroke-width="5"/></g></g></svg>