<svg version="1.1" xmlns="http://www.w3.org/2000/svg" xmlns:xlink="http://www.w3.org/1999/xlink" width="60.13569" height="57.05299" viewBox="0,0,60.13569,57.05299"><g transform="translate(-209.25968,-151.20886)"><g data-paper-data="{&quot;isPaintingLayer&quot;:true}" fill-rule="nonzero" stroke="#000000" stroke-linejoin="miter" stroke-miterlimit="10" stroke-dasharray="" stroke-dashoffset="0" style="mix-blend-mode: normal"><path d="" fill="#ffea00" stroke-width="50" stroke-linecap="butt"/><path d="" fill="#000000" stroke-width="5" stroke-linecap="butt"/><path d="M213.33797,176.42612c12.87288,-8.26652 1.90473,-10.66798 4.88074,-15.69283c2.2851,-3.85827 7.70531,-0.93796 11.37645,-2.64531c5.47644,-2.54694 9.15996,-7.33151 12.60147,-1.87193c2.78718,4.42156 10.58055,2.49661 16.71152,4.57331c0.10374,0.03514 0.207,0.07143 0.30976,0.10891c3.82651,1.39575 -2.73264,5.63925 -0.98582,8.39534c2.23735,3.53003 11.63425,5.991 6.55957,10.77706c-10.75682,11.58539 9.3455,9.6297 -0.9093,18.06097c-2.17927,4.20068 -11.65597,2.96391 -14.73321,4.47978c-3.95372,1.94763 -6.3338,5.73105 -10.49748,0.48482c-3.29058,-3.68347 -11.98103,-1.64212 -17.24717,-3.74025c-4.19182,-1.6701 0.1869,-5.35957 -1.47299,-8.25182c-2.13244,-3.71562 -11.94883,-9.55842 -6.59354,-14.67805z" fill="#ffea00" stroke-width="5" stroke-linecap="butt"/><path d="" fill="#000000" stroke-width="5" stroke-linecap="butt"/><path d="" fill="none" stroke-width="5" stroke-linecap="round"/><path d="M245.38151,174.60861c0,-1.68852 1.36882,-3.05734 3.05734,-3.05734c1.68852,0 3.05734,1.36882 3.05734,3.05734c0,1.68852 -1.36882,3.05735 -3.05734,3.05735c-1.68852,0 -3.05734,-1.36883 -3.05734,-3.05735z" fill="#000000" stroke-width="5" stroke-linecap="butt"/><path d="M228.5038,174.48229c0,-1.68852 1.36882,-3.05734 3.05734,-3.05734c1.68852,0 3.05735,1.36882 3.05735,3.05734c0,1.68852 -1.36883,3.05735 -3.05735,3.05735c-1.68852,0 -3.05734,-1.36883 -3.05734,-3.05735z" fill="#000000" stroke-width="5" stroke-linecap="butt"/><path d="M227.1458,187.63496h25" fill="none" stroke-width="5" stroke-linecap="round"/></g></g></svg>