<svg version="1.1" xmlns="http://www.w3.org/2000/svg" xmlns:xlink="http://www.w3.org/1999/xlink" width="56.40641" height="59.46848" viewBox="0,0,56.40641,59.46848"><g transform="translate(-214.3,-146.23152)"><g data-paper-data="{&quot;isPaintingLayer&quot;:true}" fill-rule="nonzero" stroke-width="5" stroke-linejoin="miter" stroke-miterlimit="10" stroke-dasharray="" stroke-dashoffset="0" style="mix-blend-mode: normal"><path d="M216.8,180c0,-12.81301 10.38699,-23.2 23.2,-23.2c12.81301,0 23.2,10.38699 23.2,23.2c0,12.81301 -10.38699,23.2 -23.2,23.2c-12.81301,0 -23.2,-10.38699 -23.2,-23.2z" fill="#ffea00" stroke="#000000" stroke-linecap="butt"/><path d="M245.38151,174.35013c0,-0.32505 1.36882,-0.58855 3.05734,-0.58855c1.68852,0 3.05734,0.2635 3.05734,0.58855c0,0.32505 -1.36882,0.58855 -3.05734,0.58855c-1.68852,0 -3.05734,-0.26351 -3.05734,-0.58855z" fill="#000000" stroke="#000000" stroke-linecap="butt"/><path d="M228.5038,174.28623c0,-0.32505 1.36882,-0.58855 3.05734,-0.58855c1.68852,0 3.05735,0.2635 3.05735,0.58855c0,0.32505 -1.36883,0.58855 -3.05735,0.58855c-1.68852,0 -3.05734,-0.26351 -3.05734,-0.58855z" fill="#000000" stroke="#000000" stroke-linecap="butt"/><path d="M227.1458,187.63496h25" fill="none" stroke="#000000" stroke-linecap="round"/><path d="M259.26702,161.95314c0,-2.46855 2.00115,-4.4697 4.4697,-4.4697c2.46855,0 4.46969,2.00115 4.46969,4.4697c0,2.46855 -2.00114,4.4697 -4.46969,4.4697c-2.46855,0 -4.4697,-2.00115 -4.4697,-4.4697z" fill="#00b5ff" stroke="#00b5ff" stroke-linecap="butt"/><path d="M259.57004,160.36223l3.94984,-8.48485l4.23197,8.09917" fill="none" stroke="#00b5ff" stroke-linecap="round"/></g></g></svg>