<svg version="1.1" xmlns="http://www.w3.org/2000/svg" xmlns:xlink="http://www.w3.org/1999/xlink" width="51.4" height="51.4" viewBox="0,0,51.4,51.4"><g transform="translate(-214.3,-154.3)"><g data-paper-data="{&quot;isPaintingLayer&quot;:true}" fill-rule="nonzero" stroke="#000000" stroke-linejoin="miter" stroke-miterlimit="10" stroke-dasharray="" stroke-dashoffset="0" style="mix-blend-mode: normal"><path d="M216.8,180c0,-12.81301 10.38699,-23.2 23.2,-23.2c12.81301,0 23.2,10.38699 23.2,23.2c0,12.81301 -10.38699,23.2 -23.2,23.2c-12.81301,0 -23.2,-10.38699 -23.2,-23.2z" fill="#ffea00" stroke-width="5" stroke-linecap="butt"/><path d="M246.7966,172.93691c0,-1.68852 2.59524,-1.35923 4.28376,-1.35923c1.68852,0 3.05734,-0.14061 3.05734,1.54791c0,1.68852 -1.36882,3.05735 -3.05734,3.05735c-1.68852,0 -4.28376,-1.55751 -4.28376,-3.24603z" fill="#000000" stroke-width="9" stroke-linecap="butt"/><path d="M226.61701,173.28229c0,-1.68852 1.36882,-1.85734 3.05734,-1.85734c1.68852,0 4.56678,-0.39722 4.56678,1.2913c0,1.68852 -2.87826,3.62339 -4.56678,3.62339c-1.68852,0 -3.05734,-1.36883 -3.05734,-3.05735z" fill="#000000" stroke-width="9" stroke-linecap="butt"/><path d="M254.27568,183.88658c0,0 -1.07927,5.6837 -5.55155,9.14642c-2.24087,1.41002 -3.32887,2.4434 -8.71888,2.39299c-7.19842,-0.06734 -8.32671,-2.54752 -10.54407,-4.3097c-2.7982,-2.2238 -4.36515,-7.22971 -4.36515,-7.22971z" fill="#ffffff" stroke-width="3.5" stroke-linecap="round"/><path d="M233.4581,192.65354v-7.15825" fill="none" stroke-width="3.5" stroke-linecap="round"/><path d="M240.15944,184.12456v10.20431" fill="none" stroke-width="3.5" stroke-linecap="round"/><path d="M246.86078,193.01591v-7.91976" fill="none" stroke-width="3.5" stroke-linecap="round"/><path d="M220.13521,168.79537l39.8566,0.28302" fill="none" stroke-width="5" stroke-linecap="round"/></g></g></svg>