<svg version="1.1" xmlns="http://www.w3.org/2000/svg" xmlns:xlink="http://www.w3.org/1999/xlink" width="43.21864" height="50.30609" viewBox="0,0,43.21864,50.30609"><g transform="translate(-218.33459,-154.84814)"><g data-paper-data="{&quot;isPaintingLayer&quot;:true}" fill-rule="nonzero" stroke="#000000" stroke-width="4" stroke-linejoin="miter" stroke-miterlimit="10" stroke-dasharray="" stroke-dashoffset="0" style="mix-blend-mode: normal"><path d="M245.18597,203.09732c0,0 -8.73409,0.72752 -12.67438,-3.01997c0.05084,-4.56142 0.12411,-25.53531 0.24526,-31.86754c0.47359,-5.58784 1.7039,-11.34431 6.17828,-11.36167c5.82297,-0.14501 3.85466,6.39386 4.20229,11.91531c-0.74417,6.91311 -1.07047,9.55057 -1.07047,9.55057c0,0 17.66404,-1.76771 17.48493,2.85997c0.00154,3.56357 -9.71921,4.19271 -13.87168,4.54645c-3.91593,0.33358 -5.8869,-0.36982 0.76407,0.28184c2.95386,0.28941 13.37845,0.52756 13.21933,3.6479c-0.2151,4.21824 -9.82876,3.77577 -14.4503,3.75735c-4.77059,-0.01901 -4.44297,1.98469 0.6933,2.36251c3.05985,0.22508 13.67575,-0.60498 12.34719,3.84686c-2.98227,3.74913 -13.43705,3.46616 -13.43705,3.46616" fill="#ffde00" stroke-linecap="round"/><path d="M220.33459,199.90434v-21.75676h10.13513v21.75676z" fill="#23a900" stroke-linecap="butt"/></g></g></svg>