<svg version="1.1" xmlns="http://www.w3.org/2000/svg" xmlns:xlink="http://www.w3.org/1999/xlink" width="43.83419" height="44.03486" viewBox="0,0,43.83419,44.03486"><g transform="translate(-217.28669,-157.34598)"><g data-paper-data="{&quot;isPaintingLayer&quot;:true}" fill-rule="nonzero" stroke-width="5" stroke-linejoin="miter" stroke-miterlimit="10" stroke-dasharray="" stroke-dashoffset="0" style="mix-blend-mode: normal"><path d="M221.63793,180c0,-10.14109 8.22098,-18.36207 18.36207,-18.36207c10.14109,0 18.36207,8.22098 18.36207,18.36207c0,10.14109 -8.22098,18.36207 -18.36207,18.36207c-10.14109,0 -18.36207,-8.22098 -18.36207,-18.36207z" fill="#bbffde" stroke="#00b5ff" stroke-linecap="butt"/><path d="M232.75712,172.58009h16.29721" fill="none" stroke="#04ab00" stroke-linecap="round"/><path d="M242.83702,173.72691c0,0 0.10778,6.22956 0.18501,10.8872c0.06155,3.71169 0.01734,2.94358 -1.00045,4.4931c-0.47467,0.72267 -0.84273,0.66972 -2.08441,1.27092c-0.67208,0.32541 -1.63648,0.18198 -2.84605,0.02043c-2.90441,-0.38791 -4.16979,-3.53732 -4.16979,-3.53732" fill="none" stroke="#04ab00" stroke-linecap="round"/><path d="M220.96124,188.36903c-0.76568,1.3739 -1.25407,2.71137 -1.17454,5.56735c0.42413,3.26152 0.53539,4.07817 4.75001,4.84797c3.47511,0.27982 3.62924,0.07073 9.67332,-2.26094c5.78309,-2.69059 6.25621,-3.99154 11.11781,-8.41728c6.64017,-7.3958 7.5355,-9.21055 8.83742,-11.10654c2.45031,-4.66948 4.35835,-7.82551 4.4529,-13.16659c-0.36771,-2.96805 -0.90472,-3.01018 -3.34118,-4.00648c-2.44858,-0.30726 -3.2081,0.17381 -5.19652,1.11353" fill="none" stroke="#ffc500" stroke-linecap="round"/></g></g></svg>