<svg version="1.1" xmlns="http://www.w3.org/2000/svg" xmlns:xlink="http://www.w3.org/1999/xlink" width="71" height="71" viewBox="0,0,71,71"><g transform="translate(-204.5,-144.5)"><g data-paper-data="{&quot;isPaintingLayer&quot;:true}" fill-rule="nonzero" stroke="#000000" stroke-width="5" stroke-linejoin="miter" stroke-miterlimit="10" stroke-dasharray="" stroke-dashoffset="0" style="mix-blend-mode: normal"><path d="M207,180c0,-18.22539 14.77461,-33 33,-33c18.22539,0 33,14.77461 33,33c0,18.22539 -14.77461,33 -33,33c-18.22539,0 -33,-14.77461 -33,-33z" fill="#fff700" stroke-linecap="butt"/><path d="M220.5,170.17073c0,-3.86599 3.13401,-7 7,-7c3.86599,0 7,3.13401 7,7c0,3.86599 -3.13401,7 -7,7c-3.86599,0 -7,-3.13401 -7,-7z" fill="#ffffff" stroke-linecap="butt"/><path d="M245.5,169.97073c0,-3.86599 3.13401,-7 7,-7c3.86599,0 7,3.13401 7,7c0,3.86599 -3.13401,7 -7,7c-3.86599,0 -7,-3.13401 -7,-7z" fill="#ffffff" stroke-linecap="butt"/><path d="M259.77765,193.70457c0,0 -0.28646,1.41384 -6.73719,6.21214c-2.47782,1.57589 -4.93924,2.04975 -6.31071,2.49394c-1.60319,0.51925 -3.22349,0.86904 -7.43111,0.93502c-3.94844,0.06191 -5.63346,-0.29114 -7.37729,-0.90737c-1.47146,-0.51999 -3.56311,-1.47783 -6.05173,-3.20501c-4.77625,-3.31489 -6.3751,-7.09262 -6.3751,-7.09262c0,0 -0.76353,-0.08265 -0.2906,-5.99662c1.12312,-2.69486 3.08655,-2.19865 4.30088,-2.1862c0.52287,0.00536 3.47484,0.68752 6.3308,3.59353c2.93413,2.22783 4.82765,4.64609 11.26549,4.45453c5.90479,-0.1757 9.22771,-2.44896 10.97943,-4.27368c3.13723,-2.776 1.30634,-1.65275 3.83823,-3.29321c2.52399,-0.57196 2.47035,-0.37964 4.13406,1.7943c2.18266,3.13386 -0.27518,7.47124 -0.27518,7.47124z" fill="#ffffff" stroke-linecap="round"/><path d="M239.92669,193.32765v7.80488" fill="none" stroke-linecap="round"/><path d="M231.39011,191.01058l-2.80488,8.17073" fill="none" stroke-linecap="round"/><path d="M247.97547,192.23009l2.80488,5.60976" fill="none" stroke-linecap="round"/></g></g></svg>